<svg width="337" height="393" viewBox="0 0 337 393" fill="none" xmlns="http://www.w3.org/2000/svg">
<path fill-rule="evenodd" clip-rule="evenodd" d="M204.138 0.531493C236.098 5.56817 267.395 12.9752 293.369 32.41C319.141 51.6932 336.29 79.0384 348.85 108.81C362.517 141.206 381.154 177.238 368.272 209.959C355.487 242.435 312.009 246.603 285.664 269.309C255.733 295.106 242.941 344.643 204.138 351.422C165.104 358.242 132.604 323.243 99.1206 301.9C62.9598 278.851 9.71091 264.85 1.82015 222.465C-6.20524 179.357 46.9088 150.699 63.4168 110.117C77.9715 74.3366 61.6775 24.324 92.0375 0.681461C122.349 -22.9235 166.294 -5.43256 204.138 0.531493Z" fill="#FEC0A0"/>
<path fill-rule="evenodd" clip-rule="evenodd" d="M204.138 10.4587C236.098 15.4954 267.395 22.9025 293.369 42.3372C319.141 61.6204 336.29 88.9656 348.85 118.737C362.517 151.134 381.154 187.165 368.272 219.887C355.487 252.363 312.009 256.53 285.664 279.236C255.733 305.033 242.941 354.571 204.138 361.35C165.104 368.17 132.604 333.17 99.1206 311.828C62.9598 288.779 9.71091 274.778 1.82015 232.392C-6.20524 189.284 46.9088 160.626 63.4168 120.044C77.9715 84.2639 61.6775 34.2512 92.0375 10.6087C122.349 -12.9962 166.294 4.49469 204.138 10.4587Z" stroke="#FEC0A0"/>
<path fill-rule="evenodd" clip-rule="evenodd" d="M204.138 20.3865C236.098 25.4232 267.395 32.8302 293.369 52.265C319.141 71.5481 336.29 98.8933 348.85 128.665C362.517 161.061 381.154 197.093 368.272 229.814C355.487 262.29 312.009 266.458 285.664 289.164C255.733 314.961 242.941 364.498 204.138 371.277C165.104 378.097 132.604 343.098 99.1206 321.755C62.9598 298.706 9.71091 284.705 1.82015 242.32C-6.20524 199.212 46.9088 170.554 63.4168 129.972C77.9715 94.1916 61.6775 44.179 92.0375 20.5364C122.349 -3.0685 166.294 14.4224 204.138 20.3865Z" stroke="#FEC0A0"/>
<path fill-rule="evenodd" clip-rule="evenodd" d="M204.138 30.3142C236.098 35.3509 267.395 42.7579 293.369 62.1927C319.141 81.4759 336.29 108.821 348.85 138.593C362.517 170.989 381.154 207.021 368.272 239.742C355.487 272.218 312.009 276.385 285.664 299.092C255.733 324.889 242.941 374.426 204.138 381.205C165.104 388.025 132.604 353.026 99.1206 331.683C62.9598 308.634 9.71091 294.633 1.82015 252.248C-6.20524 209.139 46.9088 180.482 63.4168 139.899C77.9715 104.119 61.6775 54.1067 92.0375 30.4642C122.349 6.85924 166.294 24.3502 204.138 30.3142Z" stroke="#FEC0A0"/>
<path fill-rule="evenodd" clip-rule="evenodd" d="M204.138 40.2419C236.098 45.2786 267.395 52.6857 293.369 72.1204C319.141 91.4036 336.29 118.749 348.85 148.521C362.517 180.917 381.154 216.948 368.272 249.67C355.487 282.146 312.009 286.313 285.664 309.02C255.733 334.816 242.941 384.354 204.138 391.133C165.104 397.953 132.604 362.953 99.1206 341.611C62.9598 318.562 9.71091 304.561 1.82015 262.176C-6.20524 219.067 46.9088 190.409 63.4168 149.827C77.9715 114.047 61.6775 64.0344 92.0375 40.3919C122.349 16.787 166.294 34.2779 204.138 40.2419Z" stroke="#FEC0A0"/>
<path fill-rule="evenodd" clip-rule="evenodd" d="M244.139 19.9409C282.32 17.4328 319.445 35.7302 348.459 60.721C375.979 84.4255 393.638 118.081 399.7 153.931C405.221 186.585 392.112 217.96 380.275 248.883C369.087 278.114 355.232 305.204 333.272 327.475C307.556 353.556 280.671 389.051 244.139 386.947C207.54 384.839 189.944 341.572 162.152 317.621C137.454 296.337 101.017 285.472 90.5305 254.571C80.0115 223.573 98.7205 191.657 108.842 160.527C118.955 129.425 126.644 97.3517 149.307 73.8033C175.161 46.9387 206.97 22.3825 244.139 19.9409Z" fill="#24997F"/>
<path fill-rule="evenodd" clip-rule="evenodd" d="M244.139 10.0132C282.32 7.50504 319.445 25.8025 348.459 50.7933C375.979 74.4977 393.638 108.154 399.7 144.003C405.221 176.657 392.112 208.032 380.275 238.955C369.087 268.186 355.232 295.276 333.272 317.547C307.556 343.628 280.671 379.123 244.139 377.019C207.54 374.912 189.944 331.644 162.152 307.694C137.454 286.409 101.017 275.544 90.5305 244.643C80.0115 213.646 98.7205 181.729 108.842 150.6C118.955 119.497 126.644 87.424 149.307 63.8756C175.161 37.0109 206.97 12.4548 244.139 10.0132Z" stroke="#24997F"/>
<path fill-rule="evenodd" clip-rule="evenodd" d="M244.139 0.0854241C282.32 -2.4227 319.445 15.8747 348.459 40.8655C375.979 64.57 393.638 98.226 399.7 134.076C405.221 166.729 392.112 198.104 380.275 229.028C369.087 258.258 355.232 285.348 333.272 307.62C307.556 333.7 280.671 369.195 244.139 367.091C207.54 364.984 189.944 321.716 162.152 297.766C137.454 276.481 101.017 265.617 90.5305 234.715C80.0115 203.718 98.7205 171.802 108.842 140.672C118.955 109.569 126.644 77.4963 149.307 53.9479C175.161 27.0832 206.97 2.52707 244.139 0.0854241Z" stroke="#24997F"/>
<path fill-rule="evenodd" clip-rule="evenodd" d="M244.139 -9.84231C282.32 -12.3504 319.445 5.94701 348.459 30.9378C375.979 54.6423 393.638 88.2983 399.7 124.148C405.221 156.802 392.112 188.177 380.275 219.1C369.087 248.33 355.232 275.42 333.272 297.692C307.556 323.772 280.671 359.267 244.139 357.164C207.54 355.056 189.944 311.788 162.152 287.838C137.454 266.554 101.017 255.689 90.5305 224.788C80.0115 193.79 98.7205 161.874 108.842 130.744C118.955 99.6418 126.644 67.5685 149.307 44.0201C175.161 17.1555 206.97 -7.40066 244.139 -9.84231Z" stroke="#24997F"/>
<path fill-rule="evenodd" clip-rule="evenodd" d="M244.139 -19.77C282.32 -22.2782 319.445 -3.98072 348.459 21.0101C375.979 44.7145 393.638 78.3705 399.7 114.22C405.221 146.874 392.112 178.249 380.275 209.172C369.087 238.403 355.232 265.493 333.272 287.764C307.556 313.845 280.671 349.34 244.139 347.236C207.54 345.128 189.944 301.861 162.152 277.91C137.454 256.626 101.017 245.761 90.5305 214.86C80.0115 183.862 98.7205 151.946 108.842 120.816C118.955 89.714 126.644 57.6408 149.307 34.0924C175.161 7.22772 206.97 -17.3284 244.139 -19.77Z" stroke="#24997F"/>
<mask id="mask0" mask-type="alpha" maskUnits="userSpaceOnUse" x="63" y="58" width="255" height="255">
<ellipse cx="190.782" cy="185.524" rx="126.819" ry="127.476" fill="#C4C4C4"/>
</mask>
<g mask="url(#mask0)">
<rect x="-51.6426" y="21.8857" width="496.739" height="333.328"/>
</g>
</svg>
