<svg width="140" height="129" viewBox="0 0 140 129" fill="none" xmlns="http://www.w3.org/2000/svg">
<path d="M40.4946 20.9276L40.5969 21.1557L40.4946 20.9276ZM67.5517 20.8437L67.4713 21.0804L67.5517 20.8437ZM23.2819 40.6832L23.5089 40.788L23.2819 40.6832ZM21.0007 59.8577L21.2504 59.8476L21.0007 59.8577ZM21.113 62.9074L20.8631 62.9147L21.113 62.9074ZM21.0745 68.0865L21.3244 68.0929L21.0745 68.0865ZM24.5808 84.8237L24.7718 84.6623L24.5808 84.8237ZM38.3793 90.597L38.3351 90.8431L38.3793 90.597ZM46.0033 92.3519L46.0837 92.1152L46.0033 92.3519ZM54.0218 96.2315L54.1436 96.0132L54.0218 96.2315ZM57.8983 98.325L58.0706 98.1439L58.0438 98.1184L58.0108 98.1017L57.8983 98.325ZM70.809 106.179L70.7287 106.416L70.809 106.179ZM97.8661 106.095L97.7638 105.867L97.8661 106.095ZM115.079 86.3398L115.306 86.4446L115.079 86.3398ZM117.36 67.1653L117.61 67.1552L117.36 67.1653ZM117.248 64.1157L116.998 64.123L117.248 64.1157ZM117.286 58.9365L117.536 58.9428L117.286 58.9365ZM113.78 42.1994L113.589 42.3608L113.78 42.1994ZM99.9815 36.426L99.9373 36.6721L99.9815 36.426ZM92.3574 34.6711L92.277 34.9078L92.3574 34.6711ZM84.339 30.7915L84.2171 31.0098L84.339 30.7915ZM80.4624 28.698L80.2901 28.8791L80.3169 28.9046L80.35 28.9213L80.4624 28.698ZM40.5969 21.1557C49.0068 17.3868 58.8733 18.162 67.4713 21.0804L67.632 20.607C58.9631 17.6644 48.9571 16.8612 40.3924 20.6994L40.5969 21.1557ZM23.5089 40.788C27.2063 32.7797 32.4203 24.82 40.5969 21.1557L40.3924 20.6994C32.0442 24.4407 26.7649 32.5429 23.055 40.5784L23.5089 40.788ZM21.2504 59.8476C20.9837 53.2675 20.7265 46.8145 23.5089 40.788L23.055 40.5784C20.2139 46.7321 20.4849 53.3087 20.7509 59.8678L21.2504 59.8476ZM21.3629 62.9C21.3329 61.8814 21.2916 60.863 21.2504 59.8476L20.7509 59.8678C20.792 60.8838 20.8332 61.8994 20.8631 62.9147L21.3629 62.9ZM21.3244 68.0929C21.3686 66.3494 21.413 64.6028 21.3629 62.9L20.8631 62.9147C20.9127 64.6014 20.8688 66.3342 20.8246 68.0802L21.3244 68.0929ZM24.7718 84.6623C21.0279 80.2334 21.1696 74.198 21.3244 68.0929L20.8246 68.0802C20.671 74.1365 20.5011 80.3847 24.3899 84.985L24.7718 84.6623ZM38.4234 90.3509C33.1037 89.3968 27.9896 88.4689 24.7718 84.6623L24.3899 84.985C27.7452 88.9542 33.0612 89.8971 38.3351 90.8431L38.4234 90.3509ZM46.0837 92.1152C43.6465 91.2873 41.0138 90.8156 38.4234 90.3509L38.3351 90.8431C40.9328 91.309 43.5275 91.7749 45.9229 92.5887L46.0837 92.1152ZM54.1436 96.0132C51.5153 94.5456 48.8433 93.0527 46.0837 92.1152L45.9229 92.5887C48.6316 93.5088 51.2633 94.9775 53.8999 96.4498L54.1436 96.0132ZM58.0108 98.1017C56.7239 97.454 55.4389 96.7365 54.1436 96.0132L53.8999 96.4498C55.1934 97.1721 56.4879 97.8949 57.7859 98.5484L58.0108 98.1017ZM70.8894 105.943C66.0373 104.296 61.6921 101.589 58.0706 98.1439L57.726 98.5062C61.3973 101.998 65.8045 104.745 70.7287 106.416L70.8894 105.943ZM97.7638 105.867C89.3539 109.636 79.4874 108.861 70.8894 105.943L70.7287 106.416C79.3977 109.359 89.4036 110.162 97.9683 106.324L97.7638 105.867ZM114.852 86.235C111.154 94.2433 105.94 102.203 97.7638 105.867L97.9683 106.324C106.317 102.582 111.596 94.4801 115.306 86.4446L114.852 86.235ZM117.11 67.1754C117.377 73.7555 117.634 80.2085 114.852 86.235L115.306 86.4446C118.147 80.2909 117.876 73.7143 117.61 67.1552L117.11 67.1754ZM116.998 64.123C117.028 65.1416 117.069 66.16 117.11 67.1754L117.61 67.1552C117.569 66.1393 117.528 65.1236 117.498 64.1083L116.998 64.123ZM117.036 58.9302C116.992 60.6736 116.948 62.4202 116.998 64.123L117.498 64.1083C117.448 62.4216 117.492 60.6888 117.536 58.9428L117.036 58.9302ZM113.589 42.3608C117.333 46.7896 117.191 52.825 117.036 58.9302L117.536 58.9428C117.69 52.8865 117.86 46.6383 113.971 42.038L113.589 42.3608ZM99.9373 36.6721C105.257 37.6263 110.371 38.5542 113.589 42.3608L113.971 42.038C110.616 38.0688 105.3 37.1259 100.026 36.1799L99.9373 36.6721ZM92.277 34.9078C94.7142 35.7357 97.3469 36.2075 99.9373 36.6721L100.026 36.1799C97.4279 35.714 94.8332 35.2481 92.4378 34.4344L92.277 34.9078ZM84.2171 31.0098C86.8454 32.4774 89.5175 33.9704 92.277 34.9078L92.4378 34.4344C89.7291 33.5142 87.0974 32.0455 84.4608 30.5733L84.2171 31.0098ZM80.35 28.9213C81.6368 29.5691 82.9218 30.2865 84.2171 31.0098L84.4608 30.5733C83.1673 29.8509 81.8729 29.1281 80.5748 28.4747L80.35 28.9213ZM67.4713 21.0804C72.3234 22.7274 76.6686 25.4343 80.2901 28.8791L80.6347 28.5168C76.9635 25.0247 72.5562 22.2784 67.632 20.607L67.4713 21.0804Z" fill="#FD8061"/>
<path d="M41.6646 18.3524L41.7668 18.5805L41.6646 18.3524ZM68.7216 18.2685L68.6413 18.5052L68.7216 18.2685ZM24.4519 38.108L24.6788 38.2128L24.4519 38.108ZM22.1706 57.2825L22.4204 57.2724L22.1706 57.2825ZM22.2829 60.3322L22.033 60.3395L22.2829 60.3322ZM22.2444 65.5113L22.4943 65.5177L22.2444 65.5113ZM25.7508 82.2485L25.9417 82.0871L25.7508 82.2485ZM39.5492 88.0218L39.505 88.2679L39.5492 88.0218ZM47.1732 89.7767L47.2536 89.54L47.1732 89.7767ZM55.1917 93.6563L55.3136 93.438L55.1917 93.6563ZM59.0683 95.7499L59.2406 95.5687L59.2137 95.5432L59.1807 95.5265L59.0683 95.7499ZM71.979 103.604L71.8986 103.841L71.979 103.604ZM99.036 103.52L98.9338 103.292L99.036 103.52ZM116.249 83.7646L116.476 83.8694L116.249 83.7646ZM118.53 64.5901L118.78 64.58L118.53 64.5901ZM118.418 61.5405L118.168 61.5478L118.418 61.5405ZM118.456 56.3613L118.706 56.3676L118.456 56.3613ZM114.95 39.6242L114.759 39.7856L114.95 39.6242ZM101.151 33.8508L101.107 34.0969L101.151 33.8508ZM93.5273 32.0959L93.4469 32.3326L93.5273 32.0959ZM85.5089 28.2163L85.387 28.4346L85.5089 28.2163ZM81.6323 26.1228L81.46 26.3039L81.4868 26.3294L81.5199 26.3461L81.6323 26.1228ZM41.7668 18.5805C50.1768 14.8116 60.0432 15.5868 68.6413 18.5052L68.802 18.0318C60.133 15.0892 50.127 14.286 41.5623 18.1242L41.7668 18.5805ZM24.6788 38.2128C28.3762 30.2045 33.5902 22.2448 41.7668 18.5805L41.5623 18.1242C33.2141 21.8655 27.9348 29.9677 24.2249 38.0032L24.6788 38.2128ZM22.4204 57.2724C22.1536 50.6923 21.8964 44.2393 24.6788 38.2128L24.2249 38.0032C21.3838 44.1569 21.6549 50.7335 21.9208 57.2926L22.4204 57.2724ZM22.5328 60.3248C22.5028 59.3062 22.4615 58.2878 22.4204 57.2724L21.9208 57.2926C21.962 58.3086 22.0031 59.3242 22.033 60.3395L22.5328 60.3248ZM22.4943 65.5177C22.5385 63.7742 22.5829 62.0276 22.5328 60.3248L22.033 60.3395C22.0826 62.0263 22.0388 63.759 21.9945 65.505L22.4943 65.5177ZM25.9417 82.0871C22.1978 77.6582 22.3395 71.6228 22.4943 65.5177L21.9945 65.505C21.8409 71.5613 21.6711 77.8095 25.5598 82.4099L25.9417 82.0871ZM39.5933 87.7757C34.2737 86.8216 29.1595 85.8937 25.9417 82.0871L25.5598 82.4099C28.9151 86.379 34.2311 87.3219 39.505 88.2679L39.5933 87.7757ZM47.2536 89.54C44.8164 88.7121 42.1837 88.2404 39.5933 87.7757L39.505 88.2679C42.1028 88.7338 44.6974 89.1997 47.0928 90.0135L47.2536 89.54ZM55.3136 93.438C52.6852 91.9704 50.0132 90.4775 47.2536 89.54L47.0928 90.0135C49.8015 90.9336 52.4333 92.4023 55.0698 93.8746L55.3136 93.438ZM59.1807 95.5265C57.8938 94.8788 56.6088 94.1613 55.3136 93.438L55.0698 93.8746C56.3634 94.5969 57.6578 95.3197 58.9559 95.9732L59.1807 95.5265ZM72.0593 103.367C67.2072 101.72 62.862 99.0135 59.2406 95.5687L58.896 95.931C62.5672 99.4232 66.9744 102.169 71.8986 103.841L72.0593 103.367ZM98.9338 103.292C90.5238 107.061 80.6573 106.286 72.0593 103.367L71.8986 103.841C80.5676 106.783 90.5735 107.587 99.1382 103.748L98.9338 103.292ZM116.022 83.6598C112.324 91.6681 107.11 99.6278 98.9338 103.292L99.1382 103.748C107.486 100.007 112.766 91.905 116.476 83.8694L116.022 83.6598ZM118.28 64.6002C118.547 71.1803 118.804 77.6333 116.022 83.6598L116.476 83.8694C119.317 77.7157 119.046 71.1391 118.78 64.58L118.28 64.6002ZM118.168 61.5478C118.198 62.5664 118.239 63.5848 118.28 64.6002L118.78 64.58C118.739 63.5641 118.697 62.5484 118.668 61.5331L118.168 61.5478ZM118.206 56.355C118.162 58.0984 118.118 59.845 118.168 61.5478L118.668 61.5331C118.618 59.8464 118.662 58.1136 118.706 56.3676L118.206 56.355ZM114.759 39.7856C118.503 44.2144 118.361 50.2498 118.206 56.355L118.706 56.3676C118.86 50.3114 119.029 44.0631 115.141 39.4628L114.759 39.7856ZM101.107 34.0969C106.427 35.0511 111.541 35.979 114.759 39.7856L115.141 39.4628C111.785 35.4936 106.469 34.5507 101.196 33.6047L101.107 34.0969ZM93.4469 32.3326C95.8842 33.1606 98.5168 33.6323 101.107 34.0969L101.196 33.6047C98.5978 33.1388 96.0032 32.6729 93.6078 31.8592L93.4469 32.3326ZM85.387 28.4346C88.0153 29.9023 90.6874 31.3952 93.4469 32.3326L93.6078 31.8592C90.8991 30.939 88.2673 29.4703 85.6308 27.9981L85.387 28.4346ZM81.5199 26.3461C82.8067 26.9939 84.0917 27.7113 85.387 28.4346L85.6308 27.9981C84.3372 27.2757 83.0428 26.5529 81.7447 25.8995L81.5199 26.3461ZM68.6413 18.5052C73.4933 20.1522 77.8386 22.8591 81.46 26.3039L81.8046 25.9416C78.1334 22.4495 73.7262 19.7032 68.802 18.0318L68.6413 18.5052Z" fill="#FD8061"/>
<path d="M42.8345 15.7774L42.9367 16.0056L42.8345 15.7774ZM69.8915 15.6935L69.8112 15.9303L69.8915 15.6935ZM25.6218 35.5331L25.8488 35.6379L25.6218 35.5331ZM23.3405 54.7076L23.5903 54.6974L23.3405 54.7076ZM23.4528 57.7572L23.2029 57.7646L23.4528 57.7572ZM23.4143 62.9364L23.6643 62.9427L23.4143 62.9364ZM26.9207 79.6735L27.1116 79.5121L26.9207 79.6735ZM40.7191 85.4469L40.675 85.6929L40.7191 85.4469ZM48.3431 87.2018L48.4235 86.9651L48.3431 87.2018ZM56.3616 91.0813L56.4835 90.8631L56.3616 91.0813ZM60.2382 93.1749L60.4105 92.9938L60.3837 92.9682L60.3506 92.9516L60.2382 93.1749ZM73.1489 101.029L73.0685 101.266L73.1489 101.029ZM100.206 100.945L100.104 100.717L100.206 100.945ZM117.419 81.1897L117.646 81.2945L117.419 81.1897ZM119.7 62.0152L119.95 62.005L119.7 62.0152ZM119.588 58.9655L119.338 58.9729L119.588 58.9655ZM119.626 53.7864L119.876 53.7927L119.626 53.7864ZM116.12 37.0492L115.929 37.2106L116.12 37.0492ZM102.321 31.2759L102.277 31.5219L102.321 31.2759ZM94.6973 29.5209L94.6169 29.7577L94.6973 29.5209ZM86.6788 25.6414L86.5569 25.8597L86.6788 25.6414ZM82.8022 23.5478L82.6299 23.729L82.6567 23.7545L82.6898 23.7711L82.8022 23.5478ZM42.9367 16.0056C51.3467 12.2366 61.2132 13.0118 69.8112 15.9303L69.9719 15.4568C61.3029 12.5143 51.2969 11.711 42.7323 15.5493L42.9367 16.0056ZM25.8488 35.6379C29.5461 27.6296 34.7602 19.6699 42.9367 16.0056L42.7323 15.5493C34.3841 19.2905 29.1047 27.3927 25.3948 35.4283L25.8488 35.6379ZM23.5903 54.6974C23.3235 48.1174 23.0664 41.6644 25.8488 35.6379L25.3948 35.4283C22.5537 41.582 22.8248 48.1585 23.0907 54.7177L23.5903 54.6974ZM23.7027 57.7499C23.6727 56.7313 23.6315 55.7129 23.5903 54.6974L23.0907 54.7177C23.1319 55.7336 23.1731 56.7492 23.2029 57.7646L23.7027 57.7499ZM23.6643 62.9427C23.7085 61.1993 23.7528 59.4527 23.7027 57.7499L23.2029 57.7646C23.2526 59.4513 23.2087 61.184 23.1644 62.93L23.6643 62.9427ZM27.1116 79.5121C23.3677 75.0832 23.5094 69.0478 23.6643 62.9427L23.1644 62.93C23.0108 68.9863 22.841 75.2346 26.7298 79.8349L27.1116 79.5121ZM40.7632 85.2008C35.4436 84.2466 30.3294 83.3187 27.1116 79.5121L26.7298 79.8349C30.085 83.8041 35.4011 84.747 40.675 85.6929L40.7632 85.2008ZM48.4235 86.9651C45.9863 86.1371 43.3537 85.6654 40.7632 85.2008L40.675 85.6929C43.2727 86.1589 45.8673 86.6248 48.2627 87.4385L48.4235 86.9651ZM56.4835 90.8631C53.8552 89.3954 51.1831 87.9025 48.4235 86.9651L48.2627 87.4385C50.9714 88.3587 53.6032 89.8274 56.2397 91.2996L56.4835 90.8631ZM60.3506 92.9516C59.0638 92.3038 57.7788 91.5863 56.4835 90.8631L56.2397 91.2996C57.5333 92.0219 58.8277 92.7448 60.1258 93.3982L60.3506 92.9516ZM73.2292 100.792C68.3771 99.1455 64.0319 96.4386 60.4105 92.9938L60.0659 93.356C63.7371 96.8482 68.1443 99.5945 73.0685 101.266L73.2292 100.792ZM100.104 100.717C91.6937 104.486 81.8272 103.711 73.2292 100.792L73.0685 101.266C81.7375 104.208 91.7435 105.012 100.308 101.173L100.104 100.717ZM117.192 81.0849C113.494 89.0932 108.28 97.0528 100.104 100.717L100.308 101.173C108.656 97.4322 113.936 89.33 117.646 81.2945L117.192 81.0849ZM119.45 62.0253C119.717 68.6053 119.974 75.0583 117.192 81.0849L117.646 81.2945C120.487 75.1408 120.216 68.5642 119.95 62.005L119.45 62.0253ZM119.338 58.9729C119.368 59.9914 119.409 61.0098 119.45 62.0253L119.95 62.005C119.909 60.9891 119.867 59.9735 119.837 58.9582L119.338 58.9729ZM119.376 53.78C119.332 55.5235 119.288 57.2701 119.338 58.9729L119.837 58.9582C119.788 57.2714 119.832 55.5387 119.876 53.7927L119.376 53.78ZM115.929 37.2106C119.673 41.6395 119.531 47.6749 119.376 53.78L119.876 53.7927C120.03 47.7364 120.199 41.4881 116.311 36.8878L115.929 37.2106ZM102.277 31.5219C107.597 32.4761 112.711 33.404 115.929 37.2106L116.311 36.8878C112.955 32.9187 107.639 31.9758 102.365 31.0298L102.277 31.5219ZM94.6169 29.7577C97.0541 30.5856 99.6867 31.0573 102.277 31.5219L102.365 31.0298C99.7677 30.5639 97.1731 30.098 94.7777 29.2842L94.6169 29.7577ZM86.5569 25.8597C89.1852 27.3273 91.8573 28.8202 94.6169 29.7577L94.7777 29.2842C92.069 28.3641 89.4372 26.8953 86.8007 25.4231L86.5569 25.8597ZM82.6898 23.7711C83.9767 24.4189 85.2616 25.1364 86.5569 25.8597L86.8007 25.4231C85.5071 24.7008 84.2127 23.978 82.9146 23.3245L82.6898 23.7711ZM69.8112 15.9303C74.6633 17.5772 79.0085 20.2842 82.6299 23.729L82.9745 23.3667C79.3033 19.8745 74.8961 17.1282 69.9719 15.4568L69.8112 15.9303Z" fill="#FD8061"/>
<path d="M44.0044 13.2022L44.1067 13.4304L44.0044 13.2022ZM71.0614 13.1183L70.9811 13.3551L71.0614 13.1183ZM26.7917 32.9579L27.0187 33.0627L26.7917 32.9579ZM24.5104 52.1324L24.7602 52.1222L24.5104 52.1324ZM24.6227 55.182L24.3729 55.1894L24.6227 55.182ZM24.5843 60.3612L24.8342 60.3675L24.5843 60.3612ZM28.0906 77.0983L28.2815 76.9369L28.0906 77.0983ZM41.889 82.8717L41.8449 83.1177L41.889 82.8717ZM49.5131 84.6266L49.5935 84.3899L49.5131 84.6266ZM57.5315 88.5061L57.6534 88.2879L57.5315 88.5061ZM61.4081 90.5997L61.5804 90.4186L61.5536 90.3931L61.5205 90.3764L61.4081 90.5997ZM74.3188 98.454L74.2384 98.6907L74.3188 98.454ZM101.376 98.3701L101.274 98.142L101.376 98.3701ZM118.589 78.6145L118.816 78.7193L118.589 78.6145ZM120.87 59.44L121.12 59.4298L120.87 59.44ZM120.757 56.3903L120.508 56.3977L120.757 56.3903ZM120.796 51.2112L121.046 51.2175L120.796 51.2112ZM117.29 34.474L117.099 34.6354L117.29 34.474ZM103.491 28.7007L103.447 28.9467L103.491 28.7007ZM95.8672 26.9457L95.7868 27.1825L95.8672 26.9457ZM87.8487 23.0662L87.7268 23.2845L87.8487 23.0662ZM83.9721 20.9726L83.7998 21.1538L83.8267 21.1793L83.8597 21.1959L83.9721 20.9726ZM44.1067 13.4304C52.5166 9.66144 62.3831 10.4366 70.9811 13.3551L71.1418 12.8816C62.4728 9.93909 52.4669 9.13581 43.9022 12.9741L44.1067 13.4304ZM27.0187 33.0627C30.716 25.0544 35.9301 17.0947 44.1067 13.4304L43.9022 12.9741C35.554 16.7153 30.2747 24.8175 26.5647 32.8531L27.0187 33.0627ZM24.7602 52.1222C24.4934 45.5422 24.2363 39.0892 27.0187 33.0627L26.5647 32.8531C23.7236 39.0068 23.9947 45.5833 24.2606 52.1425L24.7602 52.1222ZM24.8726 55.1747C24.8427 54.1561 24.8014 53.1377 24.7602 52.1222L24.2606 52.1425C24.3018 53.1584 24.343 54.174 24.3729 55.1894L24.8726 55.1747ZM24.8342 60.3675C24.8784 58.6241 24.9227 56.8775 24.8726 55.1747L24.3729 55.1894C24.4225 56.8761 24.3786 58.6088 24.3343 60.3548L24.8342 60.3675ZM28.2815 76.9369C24.5377 72.508 24.6793 66.4727 24.8342 60.3675L24.3343 60.3548C24.1807 66.4111 24.0109 72.6594 27.8997 77.2597L28.2815 76.9369ZM41.9332 82.6256C36.6135 81.6714 31.4993 80.7435 28.2815 76.9369L27.8997 77.2597C31.2549 81.2289 36.571 82.1718 41.8449 83.1177L41.9332 82.6256ZM49.5935 84.3899C47.1562 83.5619 44.5236 83.0902 41.9332 82.6256L41.8449 83.1177C44.4426 83.5837 47.0372 84.0496 49.4326 84.8633L49.5935 84.3899ZM57.6534 88.2879C55.0251 86.8202 52.353 85.3273 49.5935 84.3899L49.4326 84.8633C52.1413 85.7835 54.7731 87.2522 57.4096 88.7244L57.6534 88.2879ZM61.5205 90.3764C60.2337 89.7286 58.9487 89.0111 57.6534 88.2879L57.4096 88.7244C58.7032 89.4467 59.9976 90.1696 61.2957 90.823L61.5205 90.3764ZM74.3992 98.2173C69.5471 96.5703 65.2018 93.8634 61.5804 90.4186L61.2358 90.7808C64.907 94.273 69.3142 97.0193 74.2384 98.6907L74.3992 98.2173ZM101.274 98.142C92.8636 101.911 82.9972 101.136 74.3992 98.2173L74.2384 98.6907C82.9074 101.633 92.9134 102.437 101.478 98.5983L101.274 98.142ZM118.362 78.5097C114.664 86.518 109.45 94.4776 101.274 98.142L101.478 98.5983C109.826 94.857 115.106 86.7548 118.816 78.7193L118.362 78.5097ZM120.62 59.4501C120.887 66.0302 121.144 72.4831 118.362 78.5097L118.816 78.7193C121.657 72.5656 121.386 65.989 121.12 59.4298L120.62 59.4501ZM120.508 56.3977C120.538 57.4162 120.579 58.4346 120.62 59.4501L121.12 59.4298C121.078 58.4139 121.037 57.3983 121.007 56.383L120.508 56.3977ZM120.546 51.2048C120.502 52.9483 120.457 54.6949 120.508 56.3977L121.007 56.383C120.958 54.6962 121.002 52.9635 121.046 51.2175L120.546 51.2048ZM117.099 34.6354C120.843 39.0643 120.701 45.0997 120.546 51.2048L121.046 51.2175C121.2 45.1612 121.369 38.9129 117.481 34.3126L117.099 34.6354ZM103.447 28.9467C108.767 29.9009 113.881 30.8288 117.099 34.6354L117.481 34.3126C114.125 30.3435 108.809 29.4006 103.535 28.4546L103.447 28.9467ZM95.7868 27.1825C98.224 28.0104 100.857 28.4821 103.447 28.9467L103.535 28.4546C100.938 27.9887 98.343 27.5228 95.9476 26.709L95.7868 27.1825ZM87.7268 23.2845C90.3552 24.7521 93.0272 26.245 95.7868 27.1825L95.9476 26.709C93.2389 25.7889 90.6071 24.3201 87.9706 22.8479L87.7268 23.2845ZM83.8597 21.1959C85.1466 21.8437 86.4316 22.5612 87.7268 23.2845L87.9706 22.8479C86.677 22.1256 85.3826 21.4028 84.0846 20.7493L83.8597 21.1959ZM70.9811 13.3551C75.8332 15.002 80.1784 17.709 83.7998 21.1538L84.1444 20.7915C80.4732 17.2993 76.066 14.553 71.1418 12.8816L70.9811 13.3551Z" fill="#FD8061"/>
<path fill-rule="evenodd" clip-rule="evenodd" d="M65.6786 21.5463C57.0451 18.6158 47.1089 17.8266 38.6216 21.6302C30.3592 25.333 25.1125 33.3639 21.4089 41.3859C18.5971 47.476 18.8613 53.9907 19.1276 60.5603C19.1688 61.576 19.21 62.593 19.2399 63.61C19.2898 65.3048 19.2457 67.0444 19.2014 68.7892C19.0472 74.8699 18.8915 81.0117 22.7078 85.5263C25.9943 89.4142 31.2094 90.3496 36.5062 91.2996C39.1003 91.7649 41.7139 92.2337 44.1302 93.0546C46.8644 93.9834 49.5163 95.4642 52.1487 96.9341C53.4431 97.6569 54.7328 98.3771 56.0253 99.0277C59.6716 102.496 64.0478 105.223 68.936 106.882C77.5695 109.812 87.5057 110.602 95.993 106.798C104.255 103.095 109.502 95.0644 113.206 87.0424C116.017 80.9523 115.753 74.4375 115.487 67.8679C115.446 66.8522 115.405 65.8352 115.375 64.8183C115.325 63.1235 115.369 61.3839 115.413 59.6391C115.567 53.5584 115.723 47.4166 111.907 42.902C108.62 39.0141 103.405 38.0787 98.1084 37.1286C95.5143 36.6634 92.9007 36.1946 90.4844 35.3737C87.7503 34.4449 85.0983 32.9641 82.4659 31.4942C81.1715 30.7714 79.8818 30.0512 78.5893 29.4006C74.943 25.9321 70.5668 23.2055 65.6786 21.5463Z" fill="#24997F"/>
</svg>
