<svg id="Capa_1" enable-background="new 0 0 512.336 512.336" height="512" viewBox="0 0 512.336 512.336" width="512" xmlns="http://www.w3.org/2000/svg"><g><circle cx="110.317" cy="255.999" fill="#ffe07d" r="102.648"/><path d="m110.317 153.351c-4.675 0-9.275.319-13.784.924 50.172 6.735 88.864 49.708 88.864 101.724s-38.692 94.99-88.864 101.724c4.509.605 9.109.924 13.784.924 56.691 0 102.648-45.957 102.648-102.648s-45.957-102.648-102.648-102.648z" fill="#ffd064"/><path d="m133.102 314.263h-45.571c-2.641 0-4.782-2.141-4.782-4.783v-30.618c0-12.624 10.234-22.857 22.857-22.857h9.422c12.624 0 22.857 10.234 22.857 22.857v30.618c0 2.642-2.142 4.783-4.783 4.783z" fill="#9dc6fb"/><path d="m115.027 256.005h-9.422c-1.319 0-2.611.118-3.869.333 10.78 1.839 18.988 11.22 18.988 22.524v30.008c0 2.979-2.415 5.393-5.394 5.393h17.771c2.641 0 4.782-2.141 4.782-4.783v-30.619c.002-12.623-10.232-22.856-22.856-22.856z" fill="#80b4fb"/><path d="m110.317 267.816c-19.352 0-35.04-15.688-35.04-35.04v-17.19c0-9.859 7.992-17.85 17.85-17.85h34.379c9.859 0 17.85 7.992 17.85 17.85v17.19c.001 19.352-15.687 35.04-35.039 35.04z" fill="#f1d0a5"/><path d="m127.506 197.736h-18.304c9.859 0 17.85 7.992 17.85 17.85v17.19c0 16.185-10.976 29.799-25.888 33.825 2.918.788 5.985 1.215 9.152 1.215 19.352 0 35.04-15.688 35.04-35.04v-17.19c.001-9.858-7.991-17.85-17.85-17.85z" fill="#f1b986"/><circle cx="402.02" cy="110.148" fill="#95d6a4" r="102.648"/><path d="m402.02 7.5c-4.675 0-9.275.319-13.784.924 50.172 6.735 88.864 49.708 88.864 101.724s-38.692 94.99-88.864 101.724c4.509.605 9.109.924 13.784.924 56.691 0 102.648-45.957 102.648-102.648s-45.957-102.648-102.648-102.648z" fill="#78c2a4"/><path d="m424.805 168.412h-45.571c-2.641 0-4.783-2.141-4.783-4.783v-30.618c0-12.624 10.234-22.857 22.857-22.857h9.422c12.624 0 22.857 10.234 22.857 22.857v30.618c.001 2.641-2.14 4.783-4.782 4.783z" fill="#ffe07d"/><path d="m406.731 110.153h-9.422c-1.319 0-2.611.118-3.869.333 10.78 1.839 18.988 11.22 18.988 22.524v30.008c0 2.979-2.415 5.394-5.394 5.394h17.771c2.641 0 4.783-2.141 4.783-4.782v-30.619c0-12.624-10.234-22.858-22.857-22.858z" fill="#ffd064"/><path d="m402.02 121.965c-19.352 0-35.04-15.688-35.04-35.04v-17.19c0-9.859 7.992-17.85 17.85-17.85h34.379c9.859 0 17.85 7.992 17.85 17.85v17.19c.001 19.352-15.687 35.04-35.039 35.04z" fill="#f1d0a5"/><path d="m419.21 51.885h-18.304c9.858 0 17.85 7.992 17.85 17.85v17.19c0 16.185-10.976 29.799-25.888 33.825 2.918.788 5.985 1.215 9.152 1.215 19.352 0 35.04-15.688 35.04-35.04v-17.19c0-9.859-7.992-17.85-17.85-17.85z" fill="#f1b986"/><circle cx="402.02" cy="402.187" fill="#df73c1" r="102.648"/><path d="m402.02 299.539c-4.675 0-9.275.319-13.784.924 50.172 6.735 88.864 49.708 88.864 101.724s-38.692 94.99-88.864 101.724c4.509.605 9.109.924 13.784.924 56.691 0 102.648-45.957 102.648-102.648s-45.957-102.648-102.648-102.648z" fill="#dd4fb1"/><path d="m424.805 460.451h-45.571c-2.641 0-4.783-2.141-4.783-4.783v-30.618c0-12.624 10.234-22.857 22.857-22.857h9.422c12.624 0 22.857 10.234 22.857 22.857v30.618c.001 2.642-2.14 4.783-4.782 4.783z" fill="#e7a561"/><path d="m406.731 402.193h-9.422c-1.319 0-2.611.118-3.869.333 10.78 1.839 18.988 11.22 18.988 22.524v30.008c0 2.979-2.415 5.394-5.394 5.394h17.771c2.641 0 4.783-2.141 4.783-4.783v-30.619c0-12.624-10.234-22.857-22.857-22.857z" fill="#e49542"/><path d="m402.02 414.004c-19.352 0-35.04-15.688-35.04-35.04v-17.19c0-9.859 7.992-17.85 17.85-17.85h34.379c9.859 0 17.85 7.992 17.85 17.85v17.19c.001 19.352-15.687 35.04-35.039 35.04z" fill="#f1d0a5"/><path d="m419.21 343.924h-18.304c9.858 0 17.85 7.992 17.85 17.85v17.19c0 16.185-10.976 29.799-25.888 33.825 2.918.788 5.985 1.215 9.152 1.215 19.352 0 35.04-15.688 35.04-35.04v-17.19c0-9.858-7.992-17.85-17.85-17.85z" fill="#f1b986"/><g><path d="m152.856 215.586c0-13.978-11.372-25.35-25.35-25.35h-34.38c-13.979 0-25.351 11.372-25.351 25.35v17.19c0 11.599 4.671 22.124 12.225 29.805-3.067 4.822-4.752 10.457-4.752 16.281v30.618c0 6.772 5.51 12.282 12.282 12.282h45.571c6.772 0 12.282-5.51 12.282-12.282v-30.618c0-5.823-1.685-11.459-4.753-16.281 7.553-7.682 12.224-18.206 12.224-29.805v-17.19zm-70.08 0c0-5.707 4.644-10.35 10.351-10.35h34.38c5.707 0 10.35 4.643 10.35 10.35v17.19c0 15.186-12.354 27.54-27.54 27.54s-27.54-12.354-27.54-27.54v-17.19zm47.609 91.177h-40.136v-27.9c0-2.685.715-5.289 2.016-7.577 5.484 2.581 11.6 4.031 18.052 4.031 6.451 0 12.568-1.451 18.052-4.031 1.302 2.289 2.017 4.893 2.017 7.577v27.9z"/><path d="m444.56 69.735c0-13.979-11.372-25.351-25.35-25.351h-34.38c-13.979 0-25.351 11.372-25.351 25.351v17.189c0 11.599 4.671 22.124 12.225 29.806-3.067 4.822-4.752 10.457-4.752 16.28v30.618c0 6.773 5.51 12.283 12.282 12.283h45.571c6.772 0 12.282-5.51 12.282-12.283v-30.618c0-5.823-1.685-11.458-4.753-16.281 7.554-7.682 12.225-18.206 12.225-29.805v-17.189zm-70.081 0c0-5.707 4.644-10.351 10.351-10.351h34.38c5.707 0 10.35 4.644 10.35 10.351v17.189c0 15.186-12.354 27.54-27.54 27.54s-27.54-12.354-27.54-27.54v-17.189zm47.609 91.177h-40.136v-27.901c0-2.685.715-5.288 2.017-7.577 5.483 2.581 11.6 4.031 18.051 4.031s12.568-1.45 18.052-4.031c1.302 2.289 2.017 4.893 2.017 7.577v27.901z"/><path d="m444.56 361.774c0-13.979-11.372-25.351-25.35-25.351h-34.38c-13.979 0-25.351 11.372-25.351 25.351v17.189c0 11.599 4.671 22.124 12.225 29.806-3.067 4.822-4.752 10.457-4.752 16.28v30.618c0 6.773 5.51 12.283 12.282 12.283h45.571c6.772 0 12.282-5.51 12.282-12.283v-30.617c0-5.823-1.685-11.458-4.753-16.281 7.554-7.682 12.225-18.206 12.225-29.805v-17.19zm-70.081 0c0-5.707 4.644-10.351 10.351-10.351h34.38c5.707 0 10.35 4.644 10.35 10.351v17.189c0 15.186-12.354 27.54-27.54 27.54s-27.54-12.354-27.54-27.54v-17.189zm47.609 91.177h-40.136v-27.901c0-2.685.715-5.288 2.017-7.577 5.483 2.581 11.6 4.031 18.051 4.031s12.568-1.45 18.052-4.031c1.302 2.289 2.017 4.893 2.017 7.577v27.901z"/><path d="m402.02 292.039c-41.509 0-77.723 23.083-96.496 57.083l-94.27-49.054c5.918-13.502 9.211-28.407 9.211-44.069s-3.293-30.566-9.211-44.069l94.123-48.977c18.731 34.144 55.026 57.344 96.642 57.344 25.479 0 50.327-8.905 69.967-25.074 3.198-2.633 3.656-7.359 1.023-10.557-2.634-3.2-7.36-3.655-10.557-1.023-16.962 13.964-38.424 21.654-60.434 21.654-52.465 0-95.148-42.684-95.148-95.148s42.685-95.149 95.15-95.149 95.148 42.684 95.148 95.148c0 18.915-5.539 37.19-16.019 52.849-2.305 3.442-1.381 8.101 2.061 10.404 3.443 2.308 8.101 1.382 10.405-2.061 12.137-18.137 18.553-39.296 18.553-61.192 0-60.736-49.412-110.148-110.148-110.148s-110.149 49.412-110.149 110.148c0 13.792 2.555 26.996 7.205 39.174l-94.764 49.311c-19.376-31.632-54.261-52.782-93.996-52.782-30.468 0-59.857 12.801-80.635 35.121-2.822 3.032-2.652 7.777.379 10.6 3.033 2.824 7.779 2.652 10.6-.379 17.95-19.282 43.339-30.342 69.656-30.342 52.465 0 95.148 42.684 95.148 95.148s-42.684 95.148-95.148 95.148-95.148-42.684-95.148-95.148c0-14.613 3.228-28.636 9.594-41.678 1.816-3.723.271-8.213-3.45-10.03-3.725-1.815-8.214-.271-10.03 3.45-7.375 15.109-11.114 31.345-11.114 48.258 0 60.736 49.412 110.148 110.148 110.148 39.735 0 74.62-21.15 93.996-52.782l94.871 49.367c-4.718 12.256-7.312 25.558-7.312 39.456 0 60.736 49.412 110.148 110.148 110.148 17.726 0 35.353-4.319 50.976-12.49 3.671-1.919 5.09-6.451 3.17-10.121-1.92-3.672-6.454-5.091-10.121-3.17-13.68 7.153-28.491 10.781-44.024 10.781-52.465 0-95.148-42.684-95.148-95.148s42.684-95.148 95.148-95.148 95.148 42.684 95.148 95.148c0 25.75-10.128 49.869-28.52 67.915-2.956 2.901-3.001 7.649-.101 10.606 2.901 2.955 7.649 3.003 10.606.101 21.289-20.89 33.014-48.812 33.014-78.622.001-60.737-49.411-110.149-110.147-110.149z"/></g></g></svg>